# xmcd
#
# Track frame offsets:
#	150
#	13119
#	26314
#	38239
#	50703
#	63312
#	74940
#	91410
#	102071
#	116648
#	127754
#	142046
#	153572
#	166799
#
# Disc length: 2454 seconds
#
# Revision: 0
# Processed by: cddbd v1.5.2PL0 Copyright (c) Steve Scherf et al.
# Submitted via: EasyCDDAExtractor 15.3.0.1
#
DISCID=be09940e
DTITLE=Percy Sledge - Grandes Exitos Vol. 2
DYEAR=2004
DGENRE=
TTITLE0=When a men loves a woman
TTITLE1=Take time to know her
TTITLE2=The good love
TTITLE3=It tears me up
TTITLE4=Behind closed doors
TTITLE5=Tell it like it is
TTITLE6=Make it good and make it last
TTITLE7=Thief in the night
TTITLE8=If this is the last time
TTITLE9=Baby help me
TTITLE10=Hard to be friends
TTITLE11=Sitting on the dock of the bay
TTITLE12=I've been loving you too long
TTITLE13=If loving you is wrong
EXTD=
EXTT0=
EXTT1=
EXTT2=
EXTT3=
EXTT4=
EXTT5=
EXTT6=
EXTT7=
EXTT8=
EXTT9=
EXTT10=
EXTT11=
EXTT12=
EXTT13=
PLAYORDER=
